<svg width="27" height="25" viewBox="0 0 27 25" fill="none" xmlns="http://www.w3.org/2000/svg">
<g clip-path="url(#clip0_559_4365)">
<path d="M0 12.5C0 15.8152 1.42232 18.9946 3.95406 21.3388C6.4858 23.683 9.91958 25 13.5 25C17.0804 25 20.5142 23.683 23.0459 21.3388C25.5777 18.9946 27 15.8152 27 12.5C27 9.18479 25.5777 6.00537 23.0459 3.66117C20.5142 1.31696 17.0804 0 13.5 0C9.91958 0 6.4858 1.31696 3.95406 3.66117C1.42232 6.00537 0 9.18479 0 12.5Z" fill="#8DD9FF"/>
<path d="M0.0609741 13.6719C0.699376 20.0256 6.47121 25 13.5 25C20.5288 25 26.3006 20.0256 26.9391 13.6719H0.0609741Z" fill="#3C9BD4"/>
<path opacity="0.35" d="M25.8159 17.6212C26.4229 16.3712 26.8025 15.0367 26.9391 13.6719H0.0609741C0.159865 14.6573 0.385404 15.6283 0.73281 16.5643C5.52584 17.0549 18.1508 17.5284 25.8159 17.6212Z" fill="#9AF4EF"/>
<path d="M0.139126 14.2578H26.8534C26.8831 14.0628 26.9192 13.8697 26.9391 13.6719H0.0609741C0.0808022 13.8689 0.109542 14.0635 0.139126 14.2578Z" fill="#93DDE8"/>
<path d="M11.3906 8.59375C9.98435 9.1146 8.43749 9.14712 8.01561 9.44009C7.69678 9.66152 5.36951 13.6719 2.73279 13.6719H11.6554L11.3906 8.59375Z" fill="#52C883"/>
<path d="M8.71873 11.6211C8.15569 11.5383 7.03313 11.4265 6.76756 11.4176C6.63852 11.4133 6.05127 11.1253 5.76123 11.1253C5.3604 11.1253 5.12114 11.9141 4.65381 12.3987C4.38217 12.6803 3.28271 13.6719 2.28076 13.6719H5.61621L8.71873 11.6211Z" fill="#926E79"/>
<path d="M24.8906 13.6719C23.7656 13.6719 21.8483 11.3233 20.6719 10.1562C19.6875 9.17967 18.0338 10.7422 17.2956 10.7422V13.6719H24.8906Z" fill="#52C883"/>
<path d="M9.66932 5.23931C9.61817 5.23931 9.56923 5.24678 9.52172 5.25771C9.36151 5.09756 9.13444 4.9957 8.8801 4.9957C8.71968 4.9957 8.57134 5.03853 8.44198 5.10811C8.28162 4.99473 8.0836 4.92476 7.86623 4.92476C7.78676 4.92476 7.71077 4.93643 7.63694 4.95337C7.38814 4.70459 7.03534 4.54639 6.64026 4.54639C5.88795 4.54639 5.27808 5.11108 5.27808 5.80767H10.2832C10.2832 5.49375 10.0083 5.23931 9.66932 5.23931Z" fill="white"/>
<path opacity="0.5" d="M9.26163 7.94376C9.26163 7.59098 8.95276 7.30504 8.57181 7.30504C8.51433 7.30504 8.45933 7.31344 8.40591 7.32574C8.22593 7.14576 7.97069 7.03131 7.68487 7.03131C7.1406 7.03131 6.69937 7.43986 6.69937 7.94381H9.26163V7.94376ZM22.2817 7.76627C22.2258 7.76627 22.1723 7.77447 22.1204 7.78639C21.9454 7.61134 21.6971 7.50006 21.4192 7.50006C21.1482 7.50006 20.9045 7.60514 20.7302 7.77262C20.5562 7.60631 20.3157 7.50006 20.0458 7.50006C19.5165 7.50006 19.0875 7.89738 19.0875 8.38741H22.9526C22.9525 8.0444 22.6522 7.76627 22.2817 7.76627Z" fill="white"/>
<path d="M21.0806 6.09866C21.0806 5.51697 20.5712 5.04539 19.943 5.04539C19.8237 5.04539 19.7109 5.06711 19.6028 5.09871C19.2603 4.6429 18.6923 4.34319 18.0471 4.34319C17.5679 4.34319 17.1317 4.50906 16.7984 4.78088C16.5209 4.46125 16.0967 4.25549 15.6193 4.25549C15.1801 4.25549 14.788 4.43132 14.5114 4.70789C14.4294 4.68904 14.345 4.6761 14.2566 4.6761C13.6712 4.6761 13.1967 5.1155 13.1967 5.65745H15.1213C15.0539 5.79207 15.0136 5.9405 15.0136 6.09866H21.0806Z" fill="white"/>
<path opacity="0.5" d="M12.2607 3.05382H14.3614C14.3614 2.74718 14.0929 2.4986 13.7617 2.4986C13.6988 2.4986 13.6393 2.51007 13.5824 2.52672C13.4019 2.28644 13.1024 2.12848 12.7624 2.12848C12.4223 2.12848 12.1228 2.28644 11.9423 2.52672C11.8853 2.51007 11.8259 2.4986 11.763 2.4986C11.5841 2.4986 11.4253 2.57262 11.3154 2.68766C11.1243 2.56945 10.8997 2.49435 10.6525 2.49435C10.2412 2.49435 9.8791 2.68536 9.66084 2.97594C9.59191 2.95582 9.52003 2.94196 9.44394 2.94196C9.04347 2.94196 8.71884 3.24254 8.71884 3.61334H12.586C12.586 3.37946 12.4565 3.17399 12.2607 3.05382Z" fill="white"/>
<path d="M3.375 13.6719C4.69336 13.6719 7.03123 12.8255 7.59375 12.1094C7.94053 11.6679 8.34152 10.7537 8.71873 10.4686C9.21069 10.0968 9.63278 10.0911 10.125 9.76562C10.6172 9.44014 12.7969 7.03125 13.5 7.03125C14.2031 7.03125 15.5566 8.49609 16.4531 8.98438C17.4322 9.51768 17.8703 10.85 18.9844 11.3281C20.4258 11.9466 21.0235 13.6719 22.7812 13.6719" fill="#52C883"/>
<path d="M13.393 13.6719C13.6578 13.588 13.922 13.5025 14.1856 13.4155C13.3834 13.3013 13.3704 12.3204 12.5319 12.0031C11.6934 11.6857 10.909 12.0752 10.4221 11.4746C9.96681 10.9131 10.0947 10.4664 9.59767 10.3516C9.46478 10.3208 9.35098 10.2532 9.2512 10.1682C9.07866 10.2409 8.90363 10.3288 8.71874 10.4685C8.34154 10.7536 7.94054 11.6679 7.59376 12.1094C7.23137 12.5707 6.13233 13.0849 5.04363 13.3932C4.9688 13.4855 4.89473 13.5784 4.82141 13.6719H13.393Z" fill="#34BE69"/>
<path d="M18.9844 11.3281C17.8702 10.85 17.4322 9.51763 16.4531 8.98438C15.5566 8.49609 14.2031 7.03125 13.5 7.03125C13.2323 7.03125 12.7503 7.3811 12.229 7.83159C12.5658 7.7249 12.9893 7.64058 13.3945 7.64976C14.1152 7.66602 13.9922 8.21943 14.8886 8.74995C15.7851 9.28047 16.3652 10.1237 16.5058 10.6771C16.6465 11.2305 17.1562 11.5072 17.8594 11.7535C18.5625 11.9999 18.7559 12.207 19.0195 12.6139C19.0195 12.6139 20.0247 12.7871 21.02 12.957C20.3662 12.4075 19.815 11.6846 18.9844 11.3281Z" fill="#53DC92"/>
<path d="M10.5469 14.8438C10.5469 14.8438 9.68556 13.1185 8.9824 13.1185C7.40037 13.1185 7.34764 14.8438 5.90625 14.8438M22.5493 13.6719L22.5656 13.66C21.7455 13.4389 21.863 12.3305 20.7773 12.4186C19.7754 12.5 19.6347 12.1582 19.0195 12.3987C18.4163 12.6345 18.2461 12.7604 17.3672 12.6302C16.4884 12.5 15.8222 13.3219 14.3632 13.3056C13.9106 13.3006 14.1006 13.2161 13.8032 13.6718H22.5493V13.6719ZM11.4823 10.3516C11.9999 10.8079 13.1704 9.80225 13.4077 9.50928C13.645 9.21631 14.291 9.15527 14.792 9.49004C15.293 9.8248 15.5879 9.94102 16.1104 9.7168C16.6509 9.48486 16.9005 9.56875 17.2904 9.71997C17.0406 9.42813 16.7774 9.16099 16.4531 8.98438C15.5566 8.49609 14.2031 7.03125 13.5 7.03125C12.8946 7.03125 11.1971 8.81411 10.4221 9.51831C10.7183 9.375 10.9659 9.30073 11.272 9.53369C11.5616 9.7541 11.2192 10.1196 11.4823 10.3516Z" fill="#926E79"/>
<path d="M13.3326 7.06761C13.3034 7.07777 13.274 7.08832 13.2423 7.10277C13.2207 7.11268 13.1976 7.12509 13.1748 7.1368C13.1461 7.1516 13.1173 7.16678 13.087 7.18441C13.0602 7.20004 13.0325 7.21718 13.0046 7.23485C12.9763 7.25272 12.9477 7.27123 12.9183 7.291C12.8583 7.33145 12.7995 7.37331 12.7418 7.41654C12.7037 7.44486 12.6656 7.47338 12.6264 7.50394C12.6065 7.51942 12.5861 7.53588 12.5659 7.55194C12.519 7.5892 12.472 7.62665 12.4239 7.66649L12.413 7.67572C12.3511 7.72709 12.2898 7.77903 12.229 7.83153C12.5658 7.72484 12.9893 7.64052 13.3945 7.6497C14.1152 7.66595 13.9922 8.21937 14.8886 8.74989C15.3572 9.02719 15.7367 9.38973 16.0148 9.75189C16.0466 9.74027 16.0768 9.73119 16.1103 9.71678C16.6508 9.48485 16.9005 9.56874 17.2904 9.71996C17.2067 9.62253 17.1193 9.52787 17.0284 9.43617C16.97 9.37753 16.9106 9.3204 16.8488 9.26708C16.8179 9.24047 16.7864 9.21454 16.7543 9.18929C16.6585 9.114 16.5602 9.04266 16.4531 8.98431C15.5566 8.49603 14.203 7.03119 13.4999 7.03119C13.4641 7.03119 13.4239 7.03842 13.3809 7.05033C13.3657 7.05458 13.3486 7.06205 13.3326 7.06761Z" fill="#A17988"/>
<path d="M6.38086 13.6719C5.72168 13.6719 5.66895 13.1592 4.93066 13.1592C4.19238 13.1592 4.11328 13.6719 3.87598 13.6719H6.38086ZM17.1387 13.6719C16.7432 13.6719 16.6245 13.3301 15.3062 13.269C14.7136 13.2416 14.8922 13.1916 14.1458 13.1916C13.3993 13.1916 13.1803 13.4391 12.7996 13.4391C12.4189 13.4391 12.0358 13.6719 12.0358 13.6719H17.1387Z" fill="#674447"/>
<path d="M20.6719 10.1563C20.1361 9.62477 19.4026 9.8462 18.7258 10.1577C19.1074 10.5632 19.7585 9.99 20.2148 10.3516C20.8007 10.8158 21.8082 12.1908 22.3698 12.8293C22.9985 13.5441 23.0274 13.6719 24.8906 13.6719C23.7656 13.6719 21.8483 11.3233 20.6719 10.1563Z" fill="#53DC92"/>
<path d="M10.9863 14.8437H10.0371C9.8789 13.6068 8.89382 13.0088 8.34085 13.2325C8.34085 13.2325 9.40429 12.6058 10.1777 13.4155C10.9512 14.2252 10.9863 14.8437 10.9863 14.8437ZM22.5656 13.66C21.7455 13.4389 21.8631 12.3305 20.7774 12.4186C19.7754 12.5 19.6348 12.1582 19.0196 12.3987C18.6725 12.5344 18.4664 12.6315 18.1887 12.6666C18.2331 12.6881 18.2765 12.7049 18.3165 12.7095C18.581 12.7396 18.9141 13.0371 19.4942 12.8092C20.0742 12.5813 20.0918 12.7929 20.5664 12.957C20.9603 13.0932 20.9579 13.4924 21.1657 13.6718H22.5493L22.5656 13.66Z" fill="#A17988"/>
</g>
<defs>
<clipPath id="clip0_559_4365">
<rect width="27" height="25" fill="white"/>
</clipPath>
</defs>
</svg>
