<svg width="64" height="64" viewBox="0 0 64 64" fill="none" xmlns="http://www.w3.org/2000/svg">
<path d="M0 16C0 7.16344 7.16344 0 16 0H48C56.8366 0 64 7.16344 64 16V48C64 56.8366 56.8366 64 48 64H16C7.16344 64 0 56.8366 0 48V16Z" fill="url(#paint0_linear_764_1158)"/>
<g clip-path="url(#clip0_764_1158)">
<path fill-rule="evenodd" clip-rule="evenodd" d="M55.1549 27.8226H39.5604L48.8566 17.5503C48.99 17.4029 49.044 17.2422 49.0139 17.0825C48.9837 16.9227 48.8703 16.7691 48.6838 16.6352C48.4973 16.5014 48.2436 16.3916 47.9454 16.3157C47.6472 16.2397 47.3138 16.2001 46.9753 16.2002H26.5262C26.1257 16.2 25.7339 16.2556 25.3995 16.3599C25.065 16.4642 24.8026 16.6128 24.6449 16.7871L12.3754 30.3466C12.242 30.494 12.188 30.6547 12.2181 30.8144C12.2483 30.9742 12.3617 31.1278 12.5482 31.2617C12.7347 31.3955 12.9884 31.5053 13.2866 31.5812C13.5848 31.6572 13.9182 31.6968 14.2567 31.6967H24.3749L12.3591 45.8644C11.5411 46.8271 14.0645 47.6426 15.6595 46.9298L36.2068 37.7423L56.4841 29.5272C56.8018 29.3985 57.0286 29.2268 57.1339 29.0352C57.2393 28.8436 57.2181 28.6413 57.0733 28.4556C56.9285 28.2698 56.667 28.1096 56.3239 27.9964C55.9809 27.8832 55.5729 27.8226 55.1549 27.8226ZM36.4603 29.7596H49.6173L33.4707 36.303L19.6267 42.492L29.2991 31.0885C29.4234 30.9415 29.4698 30.7824 29.4342 30.625C29.3986 30.4675 29.282 30.3167 29.0948 30.1855C28.9075 30.0544 28.6552 29.947 28.36 29.8728C28.0648 29.7985 27.7356 29.7597 27.4014 29.7596H17.3568L27.8758 18.1373H43.8752L34.579 28.4095C34.4456 28.5569 34.3916 28.7177 34.4217 28.8774C34.4519 29.0371 34.5653 29.1908 34.7518 29.3246C34.9383 29.4584 35.192 29.5682 35.4902 29.6442C35.7884 29.7201 36.1218 29.7598 36.4603 29.7596Z" fill="white"/>
</g>
<defs>
<linearGradient id="paint0_linear_764_1158" x1="32" y1="0" x2="32" y2="64" gradientUnits="userSpaceOnUse">
<stop stop-color="#6FA9BB"/>
<stop offset="1" stop-color="#F2E8CF"/>
</linearGradient>
<clipPath id="clip0_764_1158">
<rect width="40" height="40" fill="white" transform="translate(12 12)"/>
</clipPath>
</defs>
</svg>
