<svg width="12" height="15" viewBox="0 0 12 15" fill="none" xmlns="http://www.w3.org/2000/svg">
<path d="M6 0.5C9.06846 0.5 11.5 2.82444 11.5 5.625C11.5 6.15834 11.4503 6.56891 11.3203 6.98047C11.1888 7.3967 10.9667 7.84028 10.5898 8.42773C9.82291 9.6232 8.50233 11.2915 6.21484 14.4004C6.17067 14.4602 6.09376 14.5 6 14.5C5.92964 14.5 5.86876 14.4779 5.82422 14.4414L5.78516 14.4004C3.49767 11.2915 2.17709 9.6232 1.41016 8.42773C1.0333 7.84028 0.811168 7.3967 0.679688 6.98047C0.549729 6.56891 0.5 6.15834 0.5 5.625C0.5 2.82444 2.93154 0.5 6 0.5ZM6 2.78125C4.37403 2.78125 3 4.02453 3 5.625C3 7.22547 4.37403 8.46875 6 8.46875C7.62597 8.46875 9 7.22547 9 5.625C9 4.02453 7.62597 2.78125 6 2.78125Z" fill="white" stroke="black"/>
</svg>
