<svg width="49" height="49" viewBox="0 0 49 49" fill="none" xmlns="http://www.w3.org/2000/svg">
<path d="M14.9803 4.9176C15.3696 4.93539 15.7359 5.10704 15.9987 5.39482C16.2615 5.6826 16.3992 6.06296 16.3817 6.45228V6.47188C16.364 6.86149 16.1923 7.22812 15.9043 7.49111C15.6163 7.75411 15.2356 7.89193 14.846 7.87426C14.4564 7.85658 14.0898 7.68486 13.8268 7.39687C13.5638 7.10888 13.426 6.72821 13.4436 6.3386V6.319C13.4525 6.12606 13.4992 5.93675 13.5812 5.76188C13.6632 5.58701 13.7789 5.43002 13.9216 5.29987C14.0643 5.16973 14.2312 5.06898 14.4129 5.00338C14.5945 4.93779 14.7874 4.90864 14.9803 4.9176ZM22.2813 8.33584C22.4116 8.47839 22.5125 8.64524 22.5783 8.82682C22.6441 9.00841 22.6735 9.20119 22.6648 9.39413C22.656 9.58708 22.6094 9.77641 22.5274 9.95131C22.4455 10.1262 22.3299 10.2832 22.1872 10.4134L22.1735 10.4272C21.8848 10.6855 21.5058 10.8194 21.1189 10.7997C20.732 10.7801 20.3685 10.6086 20.1074 10.3225C19.8463 10.0363 19.7087 9.65864 19.7245 9.27159C19.7404 8.88453 19.9083 8.51937 20.1919 8.25548L20.2056 8.24176C20.3482 8.11145 20.515 8.0105 20.6966 7.9447C20.8782 7.8789 21.071 7.84953 21.2639 7.85827C21.4569 7.867 21.6462 7.91368 21.8211 7.99562C21.996 8.07757 22.153 8.19317 22.2832 8.33584M8.91016 20.5506C9.17274 20.8384 9.31032 21.2187 9.29268 21.6078C9.27503 21.997 9.10362 22.3633 8.81608 22.6262L8.8004 22.6399C8.6582 22.7722 8.49117 22.8751 8.30898 22.9425C8.1268 23.0099 7.93306 23.0405 7.73897 23.0325C7.54488 23.0246 7.35428 22.9783 7.1782 22.8962C7.00212 22.8142 6.84405 22.6981 6.71312 22.5546C6.58219 22.4111 6.48099 22.2431 6.41539 22.0602C6.34978 21.8774 6.32106 21.6834 6.33089 21.4894C6.34072 21.2954 6.38891 21.1052 6.47266 20.93C6.55642 20.7547 6.67408 20.5978 6.81884 20.4682L6.83256 20.4545C6.97525 20.3243 7.14219 20.2235 7.32385 20.1579C7.50551 20.0923 7.69832 20.0631 7.89127 20.072C8.08421 20.0809 8.27351 20.1278 8.44834 20.2099C8.62317 20.292 8.7801 20.4078 8.91016 20.5506ZM5.3998 16.4992C5.78331 16.5072 6.15471 16.3649 6.43475 16.1027C6.71479 15.8406 6.88128 15.4794 6.89867 15.0962C6.91606 14.713 6.78299 14.3382 6.52785 14.0518C6.27272 13.7654 5.91573 13.59 5.53308 13.5632H5.51348C5.31787 13.5494 5.12148 13.575 4.93589 13.6383C4.7503 13.7016 4.57925 13.8014 4.43282 13.9319C4.28639 14.0623 4.16754 14.2207 4.08326 14.3978C3.99899 14.5749 3.95099 14.767 3.94209 14.9629C3.9332 15.1588 3.96359 15.3545 4.03148 15.5385C4.09937 15.7224 4.20338 15.891 4.33739 16.0341C4.4714 16.1773 4.6327 16.2922 4.81179 16.3721C4.99088 16.4519 5.18415 16.4952 5.3802 16.4992H5.3998ZM9.39428 9.847C9.25173 9.97731 9.08489 10.0782 8.9033 10.1441C8.72171 10.2099 8.52893 10.2392 8.33599 10.2305C8.14304 10.2217 7.95371 10.1751 7.77881 10.0931C7.60392 10.0112 7.44688 9.89558 7.31668 9.75292L7.30492 9.7392C7.04189 9.45121 6.90404 9.07054 6.92168 8.68091C6.93042 8.48799 6.97707 8.29868 7.05896 8.12378C7.14086 7.94889 7.25641 7.79184 7.399 7.6616C7.5416 7.53136 7.70845 7.43048 7.89003 7.36472C8.07161 7.29896 8.26437 7.26962 8.45729 7.27835C8.84691 7.296 9.21357 7.46769 9.4766 7.75568L9.48836 7.77136C9.61868 7.91392 9.71962 8.08076 9.78542 8.26234C9.85122 8.44393 9.88059 8.63671 9.87185 8.82965C9.86312 9.0226 9.81644 9.21193 9.7345 9.38683C9.65255 9.56172 9.53695 9.7168 9.39428 9.847ZM11.4386 15.3017C11.4684 14.6315 11.7171 13.9895 12.1466 13.4742C12.5761 12.9588 13.1627 12.5985 13.8165 12.4484C14.4704 12.2982 15.1554 12.3666 15.7667 12.643C16.378 12.9194 16.8818 13.3886 17.201 13.9787C17.9458 13.3345 18.7474 12.7648 19.6059 12.2696C19.1054 11.4652 18.4217 10.7906 17.6107 10.3008C16.7997 9.81107 15.8844 9.52008 14.9395 9.45161C13.9945 9.38313 13.0468 9.53912 12.1737 9.90682C11.3006 10.2745 10.5268 10.8435 9.91552 11.5673C9.30426 12.2912 8.87287 13.1493 8.65655 14.0717C8.44024 14.9941 8.44515 15.9545 8.67088 16.8746C8.89661 17.7947 9.33675 18.6484 9.95538 19.366C10.574 20.0835 11.3536 20.6446 12.2304 21.0033C12.3754 20.9537 12.5205 20.9066 12.6655 20.8622C12.9399 20.005 13.2829 19.1844 13.6945 18.4004C13.0234 18.2163 12.4348 17.8095 12.0252 17.2468C11.6157 16.6841 11.4095 15.9989 11.4405 15.3036" fill="white"/>
<path fill-rule="evenodd" clip-rule="evenodd" d="M27.1676 13.1987C33.616 13.1987 38.9276 18.185 39.4039 24.5217C40.8724 25.4295 42.0048 26.7916 42.6293 28.4012C43.2539 30.0108 43.3365 31.7801 42.8646 33.4409C42.3927 35.1017 41.3921 36.5633 40.0145 37.604C38.6369 38.6448 36.9575 39.2079 35.231 39.2079H15.8211C13.7814 39.2072 11.8202 38.4212 10.3446 37.0129C8.86902 35.6046 7.99235 33.6822 7.89653 31.6447C7.8007 29.6072 8.49309 27.611 9.82999 26.0705C11.1669 24.5299 13.0456 23.5632 15.0763 23.3711C15.5705 20.5225 17.0547 17.9399 19.2672 16.0788C21.4797 14.2178 24.2784 13.1978 27.1695 13.1987M36.4991 25.4174C36.4834 20.2959 32.3047 16.1387 27.1695 16.1387C24.7946 16.1382 22.5088 17.0434 20.7781 18.6699C19.0475 20.2964 18.0023 22.5216 17.8556 24.8921C17.8336 25.2665 17.6693 25.6183 17.3964 25.8756C17.1235 26.1328 16.7626 26.276 16.3876 26.2759H15.8211C14.4961 26.2759 13.2253 26.8022 12.2884 27.7392C11.3515 28.6761 10.8251 29.9469 10.8251 31.2719C10.8251 32.5969 11.3515 33.8677 12.2884 34.8046C13.2253 35.7416 14.4961 36.2679 15.8211 36.2679H35.231C36.3689 36.2691 37.4731 35.8817 38.3609 35.1699C39.2488 34.4582 39.867 33.4647 40.1134 32.3538C40.3598 31.2429 40.2196 30.0811 39.716 29.0607C39.2124 28.0403 38.3755 27.2224 37.3439 26.7423C37.0918 26.6243 36.8784 26.4371 36.7285 26.2026C36.5786 25.968 36.5003 25.6957 36.4991 25.4174Z" fill="white"/>
</svg>
