<svg width="64" height="64" viewBox="0 0 64 64" fill="none" xmlns="http://www.w3.org/2000/svg">
<path d="M0 16C0 7.16344 7.16344 0 16 0H48C56.8366 0 64 7.16344 64 16V48C64 56.8366 56.8366 64 48 64H16C7.16344 64 0 56.8366 0 48V16Z" fill="url(#paint0_linear_764_2808)"/>
<path d="M30.6667 24.0003C32.1394 24.0003 33.3333 22.8064 33.3333 21.3337C33.3333 19.8609 32.1394 18.667 30.6667 18.667C29.1939 18.667 28 19.8609 28 21.3337C28 22.8064 29.1939 24.0003 30.6667 24.0003Z" stroke="white" stroke-width="2.66667" stroke-linecap="round" stroke-linejoin="round"/>
<path d="M40 29.3333C41.4728 29.3333 42.6667 28.1394 42.6667 26.6667C42.6667 25.1939 41.4728 24 40 24C38.5272 24 37.3333 25.1939 37.3333 26.6667C37.3333 28.1394 38.5272 29.3333 40 29.3333Z" stroke="white" stroke-width="2.66667" stroke-linecap="round" stroke-linejoin="round"/>
<path d="M42.6667 40.0003C44.1394 40.0003 45.3333 38.8064 45.3333 37.3337C45.3333 35.8609 44.1394 34.667 42.6667 34.667C41.1939 34.667 40 35.8609 40 37.3337C40 38.8064 41.1939 40.0003 42.6667 40.0003Z" stroke="white" stroke-width="2.66667" stroke-linecap="round" stroke-linejoin="round"/>
<path d="M28 29.333C28.8755 29.333 29.7424 29.5054 30.5512 29.8405C31.3601 30.1755 32.095 30.6666 32.7141 31.2856C33.3331 31.9047 33.8242 32.6396 34.1592 33.4485C34.4942 34.2573 34.6667 35.1242 34.6667 35.9997V40.6663C34.6663 41.7816 34.2665 42.8599 33.5398 43.7059C32.813 44.5518 31.8073 45.1095 30.7048 45.278C29.6023 45.4464 28.4759 45.2144 27.5297 44.6241C26.5835 44.0337 25.88 43.124 25.5467 42.0597C24.9778 40.2241 23.7778 39.0219 21.9467 38.453C20.8829 38.1198 19.9736 37.4169 19.3832 36.4714C18.7927 35.5258 18.5603 34.4002 18.7279 33.2982C18.8954 32.1961 19.4519 31.1905 20.2967 30.4632C21.1414 29.7359 22.2186 29.335 23.3333 29.333H28Z" stroke="white" stroke-width="2.66667" stroke-linecap="round" stroke-linejoin="round"/>
<defs>
<linearGradient id="paint0_linear_764_2808" x1="32" y1="0" x2="32" y2="64" gradientUnits="userSpaceOnUse">
<stop stop-color="#2E7D32"/>
<stop offset="1" stop-color="#A7D3F2"/>
</linearGradient>
</defs>
</svg>
